<svg viewBox="0 0 128 128" xmlns="http://www.w3.org/2000/svg" width="16" height="16">
    <rect width="128" height="128" rx="28" fill="#0f0f0f"/>
    <rect x="24" y="24" width="36" height="36" rx="8" fill="#ff0000"/>
    <polygon points="38,32 38,52 52,42" fill="#ffffff"/>
    <rect x="68" y="24" width="36" height="36" rx="6" fill="#272727"/>
    <rect x="24" y="68" width="36" height="36" rx="6" fill="#272727"/>
    <rect x="68" y="68" width="36" height="36" rx="8" fill="#ff0000"/>
    <g transform="translate(74, 74) scale(2)">
        <path fill="#ffffff" clip-rule="evenodd" fill-rule="evenodd" d="M2.111 2.111a.5.5 0 11.707.707 4.501 4.501 0 000 6.364.5.5 0 01-.707.707 5.5 5.5 0 010-7.778Zm7.07 0a.5.5 0 01.708 0 5.5 5.5 0 010 7.778.5.5 0 11-.707-.707 4.5 4.5 0 000-6.364.5.5 0 010-.707ZM3.703 3.702a.5.5 0 11.707.707 2.25 2.25 0 000 3.182.5.5 0 01-.707.707 3.25 3.25 0 01-.705-3.542 3.25 3.25 0 01.705-1.054Zm3.889 0a.5.5 0 01.707 0 3.25 3.25 0 010 4.596.5.5 0 01-.707-.707 2.25 2.25 0 000-3.182.5.5 0 010-.707ZM6 5a1 1 0 110 2 1 1 0 010-2Z"></path>
    </g>
</svg>